# xmcd CD database file
#
# Track frame offsets:
#	150
#	33855
#	73820
#	102727
#	132572
#	161940
#	195390
#	213300
#	239845
#	261902
#
# Disc length: 3929 seconds
#
# Revision: 0
# Processed by: cddbd v1.5.1PL0 Copyright (c) Steve Scherf et al.
# Submitted via: CDex 1.51
#
DISCID=9f0f570a
DTITLE=Bill Evans - Bill Evans Trio Live
DYEAR=1900
DGENRE=Jazz
TTITLE0=The Two Lonely People
TTITLE1=My Romance
TTITLE2=Waltz For Debby
TTITLE3=Someday My Prince Will Come
TTITLE4=Letter To Evan
TTITLE5=I Loves You Porgy
TTITLE6=When I Fall In Love
TTITLE7=If You Could See Me Now
TTITLE8=Gary's Theme
TTITLE9=Like Someone In Love
EXTD=
EXTT0=
EXTT1=
EXTT2=
EXTT3=
EXTT4=
EXTT5=
EXTT6=
EXTT7=
EXTT8=
EXTT9=
PLAYORDER=
